{
  "accessors": [
    {
      "bufferView": 2,
      "componentType": 5126,
      "count": 3923,
      "max": [
        228.37127685546875,
        93.88157653808594,
        208.1437225341797
      ],
      "min": [
        -228.48773193359375,
        -93.88157653808594,
        28.331613540649414
      ],
      "type": "VEC3"
    },
    {
      "bufferView": 2,
      "byteOffset": 47076,
      "componentType": 5126,
      "count": 3923,
      "max": [
        1.0,
        1.0,
        1.0
      ],
      "min": [
        -1.0,
        -1.0,
        -1.0
      ],
      "type": "VEC3"
    },
    {
      "bufferView": 3,
      "componentType": 5126,
      "count": 3923,
      "max": [
        1.0,
        1.0,
        1.0,
        1.0
      ],
      "min": [
        -1.0,
        -1.0,
        -1.0,
        -1.0
      ],
      "type": "VEC4"
    },
    {
      "bufferView": 1,
      "componentType": 5126,
      "count": 3923,
      "max": [
        0.988768994808197,
        0.9883099794387817
      ],
      "min": [
        0.00687999976798892,
        0.00999400019645691
      ],
      "type": "VEC2"
    },
    {
      "bufferView": 0,
      "componentType": 5125,
      "count": 12729,
      "type": "SCALAR"
    },
    {
      "bufferView": 2,
      "byteOffset": 94152,
      "componentType": 5126,
      "count": 7652,
      "max": [
        211.67324829101563,
        89.36688232421875,
        137.09837341308594
      ],
      "min": [
        -211.67324829101563,
        -89.36688232421875,
        -0.9806309938430786
      ],
      "type": "VEC3"
    },
    {
      "bufferView": 2,
      "byteOffset": 185976,
      "componentType": 5126,
      "count": 7652,
      "max": [
        1.0,
        1.0,
        1.0
      ],
      "min": [
        -1.0,
        -1.0,
        -1.0
      ],
      "type": "VEC3"
    },
    {
      "bufferView": 3,
      "byteOffset": 62768,
      "componentType": 5126,
      "count": 7652,
      "max": [
        1.0,
        1.0,
        1.0,
        1.0
      ],
      "min": [
        -1.0,
        -1.0,
        -0.9998129606246948,
        -1.0
      ],
      "type": "VEC4"
    },
    {
      "bufferView": 1,
      "byteOffset": 31384,
      "componentType": 5126,
      "count": 7652,
      "max": [
        0.981909990310669,
        0.9863669872283936
      ],
      "min": [
        0.0157919991761446,
        0.03717299923300743
      ],
      "type": "VEC2"
    },
    {
      "bufferView": 0,
      "byteOffset": 50916,
      "componentType": 5125,
      "count": 33024,
      "type": "SCALAR"
    },
    {
      "bufferView": 2,
      "byteOffset": 277800,
      "componentType": 5126,
      "count": 4534,
      "max": [
        227.93885803222656,
        -34.51493453979492,
        203.74948120117188
      ],
      "min": [
        -214.44252014160156,
        -96.70413970947266,
        42.208953857421875
      ],
      "type": "VEC3"
    },
    {
      "bufferView": 2,
      "byteOffset": 332208,
      "componentType": 5126,
      "count": 4534,
      "max": [
        1.0,
        0.9999986290931702,
        1.0
      ],
      "min": [
        -1.0,
        -1.0,
        -1.0
      ],
      "type": "VEC3"
    },
    {
      "bufferView": 3,
      "byteOffset": 185200,
      "componentType": 5126,
      "count": 4534,
      "max": [
        1.0,
        1.0,
        1.0,
        1.0
      ],
      "min": [
        -1.0,
        -1.0,
        -0.9993863105773926,
        -1.0
      ],
      "type": "VEC4"
    },
    {
      "bufferView": 1,
      "byteOffset": 92600,
      "componentType": 5126,
      "count": 4534,
      "max": [
        0.992779016494751,
        0.974947988986969
      ],
      "min": [
        -1.0541000366210938,
        0.0
      ],
      "type": "VEC2"
    },
    {
      "bufferView": 0,
      "byteOffset": 183012,
      "componentType": 5125,
      "count": 17634,
      "type": "SCALAR"
    },
    {
      "bufferView": 2,
      "byteOffset": 386616,
      "componentType": 5126,
      "count": 4534,
      "max": [
        227.93885803222656,
        96.70413970947266,
        203.74948120117188
      ],
      "min": [
        -214.44252014160156,
        34.51493453979492,
        42.208953857421875
      ],
      "type": "VEC3"
    },
    {
      "bufferView": 2,
      "byteOffset": 441024,
      "componentType": 5126,
      "count": 4534,
      "max": [
        1.0,
        1.0,
        1.0
      ],
      "min": [
        -1.0,
        -0.9999986290931702,
        -1.0
      ],
      "type": "VEC3"
    },
    {
      "bufferView": 1,
      "byteOffset": 128872,
      "componentType": 5126,
      "count": 4534,
      "max": [
        0.992779016494751,
        0.974947988986969
      ],
      "min": [
        -1.0541000366210938,
        0.0
      ],
      "type": "VEC2"
    },
    {
      "bufferView": 0,
      "byteOffset": 253548,
      "componentType": 5125,
      "count": 17634,
      "type": "SCALAR"
    }
  ],
  "asset": {
    "extras": {
      "author": "Dkerr (https://sketchfab.com/daleraymondkerr)",
      "license": "CC-BY-4.0 (http://creativecommons.org/licenses/by/4.0/)",
      "source": "https://sketchfab.com/3d-models/1920s-pierce-arrow-ab9e5dfffd474d3b9d8c76f46da1a499",
      "title": "1920'S Pierce Arrow"
    },
    "generator": "Sketchfab-12.67.0",
    "version": "2.0"
  },
  "bufferViews": [
    {
      "buffer": 0,
      "byteLength": 324084,
      "name": "floatBufferViews",
      "target": 34963
    },
    {
      "buffer": 0,
      "byteLength": 165144,
      "byteOffset": 324084,
      "byteStride": 8,
      "name": "floatBufferViews",
      "target": 34962
    },
    {
      "buffer": 0,
      "byteLength": 495432,
      "byteOffset": 489228,
      "byteStride": 12,
      "name": "floatBufferViews",
      "target": 34962
    },
    {
      "buffer": 0,
      "byteLength": 257744,
      "byteOffset": 984660,
      "byteStride": 16,
      "name": "floatBufferViews",
      "target": 34962
    }
  ],
  "buffers": [
    {
      "byteLength": 1242404,
      "uri": "scene.bin"
    }
  ],
  "images": [
    {
      "uri": "textures/MOBCAR_BODY_GEOSG_baseColor.png"
    },
    {
      "uri": "textures/MOBCAR_BODY_GEOSG_metallicRoughness.png"
    },
    {
      "uri": "textures/MOBCAR_BODY_GEOSG_normal.png"
    },
    {
      "uri": "textures/MOBCAR_TYRE_GEOSG_baseColor.png"
    },
    {
      "uri": "textures/MOBCAR_TYRE_GEOSG_metallicRoughness.png"
    },
    {
      "uri": "textures/MOBCAR_TYRE_GEOSG_normal.png"
    },
    {
      "uri": "textures/polySurface39SG_baseColor.png"
    },
    {
      "uri": "textures/polySurface39SG_metallicRoughness.png"
    },
    {
      "uri": "textures/polySurface39SG_normal.png"
    },
    {
      "uri": "textures/polySurface40SG_metallicRoughness.png"
    }
  ],
  "materials": [
    {
      "doubleSided": true,
      "name": "MOBCAR_BODY_GEOSG",
      "normalTexture": {
        "index": 2
      },
      "occlusionTexture": {
        "index": 1
      },
      "pbrMetallicRoughness": {
        "baseColorTexture": {
          "index": 0
        },
        "metallicRoughnessTexture": {
          "index": 1
        }
      }
    },
    {
      "doubleSided": true,
      "name": "MOBCAR_TYRE_GEOSG",
      "normalTexture": {
        "index": 5
      },
      "occlusionTexture": {
        "index": 4
      },
      "pbrMetallicRoughness": {
        "baseColorTexture": {
          "index": 3
        },
        "metallicRoughnessTexture": {
          "index": 4
        }
      }
    },
    {
      "doubleSided": true,
      "name": "polySurface39SG",
      "normalTexture": {
        "index": 8
      },
      "occlusionTexture": {
        "index": 7
      },
      "pbrMetallicRoughness": {
        "baseColorTexture": {
          "index": 6
        },
        "metallicRoughnessTexture": {
          "index": 7
        }
      }
    },
    {
      "doubleSided": true,
      "name": "polySurface40SG",
      "pbrMetallicRoughness": {
        "baseColorTexture": {
          "index": 6
        },
        "metallicRoughnessTexture": {
          "index": 9
        }
      }
    }
  ],
  "meshes": [
    {
      "name": "Object_0",
      "primitives": [
        {
          "attributes": {
            "NORMAL": 1,
            "POSITION": 0,
            "TANGENT": 2,
            "TEXCOORD_0": 3
          },
          "indices": 4,
          "material": 0,
          "mode": 4
        }
      ]
    },
    {
      "name": "Object_1",
      "primitives": [
        {
          "attributes": {
            "NORMAL": 6,
            "POSITION": 5,
            "TANGENT": 7,
            "TEXCOORD_0": 8
          },
          "indices": 9,
          "material": 1,
          "mode": 4
        }
      ]
    },
    {
      "name": "Object_2",
      "primitives": [
        {
          "attributes": {
            "NORMAL": 11,
            "POSITION": 10,
            "TANGENT": 12,
            "TEXCOORD_0": 13
          },
          "indices": 14,
          "material": 2,
          "mode": 4
        }
      ]
    },
    {
      "name": "Object_3",
      "primitives": [
        {
          "attributes": {
            "NORMAL": 16,
            "POSITION": 15,
            "TEXCOORD_0": 17
          },
          "indices": 18,
          "material": 3,
          "mode": 4
        }
      ]
    }
  ],
  "nodes": [
    {
      "children": [
        1
      ],
      "matrix": [
        1.0,
        0.0,
        0.0,
        0.0,
        0.0,
        2.220446049250313e-16,
        -1.0,
        0.0,
        0.0,
        1.0,
        2.220446049250313e-16,
        0.0,
        0.0,
        0.0,
        0.0,
        1.0
      ],
      "name": "Sketchfab_model"
    },
    {
      "children": [
        2,
        3,
        4,
        5
      ],
      "name": "81c1c0164d6946faacc0b91f37a4aa5d.obj.cleaner"
    },
    {
      "mesh": 0,
      "name": "Object_2"
    },
    {
      "mesh": 1,
      "name": "Object_3"
    },
    {
      "mesh": 2,
      "name": "Object_4"
    },
    {
      "mesh": 3,
      "name": "Object_5"
    }
  ],
  "samplers": [
    {
      "magFilter": 9729,
      "minFilter": 9987,
      "wrapS": 10497,
      "wrapT": 10497
    }
  ],
  "scene": 0,
  "scenes": [
    {
      "name": "Sketchfab_Scene",
      "nodes": [
        0
      ]
    }
  ],
  "textures": [
    {
      "sampler": 0,
      "source": 0
    },
    {
      "sampler": 0,
      "source": 1
    },
    {
      "sampler": 0,
      "source": 2
    },
    {
      "sampler": 0,
      "source": 3
    },
    {
      "sampler": 0,
      "source": 4
    },
    {
      "sampler": 0,
      "source": 5
    },
    {
      "sampler": 0,
      "source": 6
    },
    {
      "sampler": 0,
      "source": 7
    },
    {
      "sampler": 0,
      "source": 8
    },
    {
      "sampler": 0,
      "source": 9
    }
  ]
}
